# xmcd CD Database Entry
#
# Track frame offsets:
# 150
# 14799
# 29622
# 50351
# 73595
# 95121
# 112358
# 132284
# 150734
# 174912
# 194317
# 207467
# 230134
# 246829
# 268745
# 281728
# 303915
# 317377
# 336332
#
# Disc length: 4691 seconds
#
# Revision: 1
# Processed by: cddbd v1.5PL3 Copyright (c) Steve Scherf et al.
# Submitted via: tcd 2.0b
#
DISCID=27125113
DTITLE=Desconocido - Desconocido
DYEAR=1900
DGENRE=
TTITLE0=Pista 1
TTITLE1=Pista 2
TTITLE2=Pista 3
TTITLE3=Pista 4
TTITLE4=Pista 5
TTITLE5=Pista 6
TTITLE6=Pista 7
TTITLE7=Pista 8
TTITLE8=Pista 9
TTITLE9=Pista 10
TTITLE10=Pista 11
TTITLE11=Pista 12
TTITLE12=Pista 13
TTITLE13=Pista 14
TTITLE14=Pista 15
TTITLE15=Pista 16
TTITLE16=Pista 17
TTITLE17=Pista 18
TTITLE18=Pista 19
EXTD=SALSA CUMBIANDO SONIDERO 2004\n\n
EXTT0=INTRO
EXTT1=CUMBIA DE LAS FLORES(SUPER GRUPO COLOMBIA]\n
EXTT2=SERA QUE SI (MAELO RUIZ)
EXTT3=RUMBA FRENESI (GRUPO KUAL]\n
EXTT4=SE ME NOTA (HANSEL]\n
EXTT5=CUMBIA COLORA (SONIDO LA CONGA]\n
EXTT6=TENGO GANAS (VICTOR MANUEL]\n
EXTT7=BAILA CON ELLA (RAUL PEDRASA
EXTT8=AMOR LUNATICO (GIRO]\n
EXTT9=ME EQUIVOQUE (MARIANA SEOANE]\n
EXTT10=MI RAZON DE VIVIR (SONIDO FASINACION]\n
EXTT11=ELLA SE HIZO DESEO (SONIDO LA CONGA]\n
EXTT12=GUARACHA EN AMERICA (SONIDO CANDELA)
EXTT13=EL AMOR TODO LO PERDONA (SONIDO SIBONEY]\n
EXTT14=POCO A POCO (SONIDO CONDOR]\n
EXTT15=AMOR DE PAPEL (TITO GOMEZ]\n
EXTT16=SUFRIR (SONIDO FANTASMA]\n
EXTT17=NUNCA TE DIRE ADIOS (EXITASO)
EXTT18=CUMBIA CHALE (SONIDO CONDOR]\n
PLAYORDER=
